<?xml version="1.0" encoding="iso-8859-1"?>
<!-- Generator: Adobe Illustrator 19.0.0, SVG Export Plug-In . SVG Version: 6.00 Build 0)  -->
<svg version="1.1" id="Layer_1" xmlns="http://www.w3.org/2000/svg" xmlns:xlink="http://www.w3.org/1999/xlink" x="0px" y="0px"
	 viewBox="0 0 499.996 499.996" style="enable-background:new 0 0 499.996 499.996;" xml:space="preserve">
<g>
	<g>
		<path d="M304.996,336.306c-3.08-3.076-8.06-3.076-11.136,0l-49.744,49.74l-26.884-26.884c-3.076-3.076-8.06-3.076-11.132,0
			c-3.08,3.076-3.08,8.06,0,11.136l32.448,32.448c1.536,1.536,3.552,2.308,5.568,2.308s4.032-0.768,5.572-2.308l55.308-55.308
			C308.072,344.366,308.072,339.378,304.996,336.306z"/>
	</g>
</g>
<g>
	<g>
		<path d="M251.68,251.866c-62.868,0-114.02,51.152-114.02,114.02s51.152,114.02,114.02,114.02
			c62.872,0,114.02-51.152,114.02-114.02S314.552,251.866,251.68,251.866z M251.68,464.158c-54.188,0-98.272-44.084-98.272-98.272
			s44.084-98.272,98.272-98.272c54.188,0,98.272,44.084,98.272,98.272S305.868,464.158,251.68,464.158z"/>
	</g>
</g>
<g>
	<g>
		<path d="M453.732,37.402h-16.724v-9.436c0-4.344-3.528-7.876-7.876-7.876c-4.344,0-7.872,3.528-7.872,7.876v9.436h-43.308v-9.436
			c0-4.344-3.528-7.876-7.876-7.876c-4.348,0-7.876,3.528-7.876,7.876v9.436h-43.3v-9.436c0-4.344-3.528-7.876-7.876-7.876
			c-4.348,0-7.876,3.528-7.876,7.876v9.436h-47.24v-9.436c0-4.344-3.528-7.876-7.876-7.876c-4.348,0-7.876,3.528-7.876,7.876v9.436
			h-39.368v-9.436c0-4.344-3.528-7.876-7.876-7.876c-4.352,0-7.876,3.528-7.876,7.876v9.436h-43.3v-9.436
			c0-4.344-3.528-7.876-7.876-7.876c-4.352,0-7.876,3.528-7.876,7.876v9.436H82.68v-9.436c0-4.344-3.528-7.876-7.876-7.876
			c-4.352,0-7.876,3.528-7.876,7.876v9.436h-16.82C22.584,37.402,0,62.174,0,89.694V367.17c0,27.52,22.584,48.18,50.108,48.18
			h110.56c-2.136-3.936-3.444-11.812-5.044-15.748H50.108c-18.84,0-34.36-13.592-34.36-32.432V92.518h468.504V367.17
			c0,18.84-11.688,32.432-30.524,32.432h-106.88c0.096,0,0.204,1.348,0.304,1.592c1.084,0.54,1.7,0.732,1.708,1.468
			c0.052,4.396,0.316,8.752,0.136,12.688h104.732c27.52,0,46.268-20.66,46.268-48.18V89.694
			C500,62.174,481.248,37.402,453.732,37.402z"/>
	</g>
</g>
<g>
	<g>
		<path d="M125.996,147.638h-51.06c-4.348,0-7.876,3.52-7.876,7.872c0,4.344,3.528,7.876,7.876,7.876h51.06
			c4.348,0,7.872-3.532,7.872-7.876C133.868,151.158,130.344,147.638,125.996,147.638z"/>
	</g>
</g>
<g>
	<g>
		<path d="M125.996,210.63h-51.06c-4.348,0-7.876,3.528-7.876,7.872c0,4.352,3.528,7.876,7.876,7.876h51.06
			c4.348,0,7.872-3.524,7.872-7.876C133.868,214.158,130.344,210.63,125.996,210.63z"/>
	</g>
</g>
<g>
	<g>
		<path d="M125.996,273.618h-51.06c-4.348,0-7.876,3.524-7.876,7.876c0,4.344,3.528,7.872,7.876,7.872h51.06
			c4.348,0,7.872-3.528,7.872-7.872C133.868,277.142,130.344,273.618,125.996,273.618z"/>
	</g>
</g>
<g>
	<g>
		<path d="M125.996,336.61h-51.06c-4.348,0-7.876,3.524-7.876,7.876c0,4.344,3.528,7.872,7.876,7.872h51.06
			c4.348,0,7.872-3.528,7.872-7.872C133.868,340.134,130.344,336.61,125.996,336.61z"/>
	</g>
</g>
<g>
	<g>
		<path d="M228.36,147.638H177.3c-4.348,0-7.876,3.52-7.876,7.872c0,4.344,3.528,7.876,7.876,7.876h51.06
			c4.348,0,7.876-3.532,7.876-7.876C236.236,151.158,232.708,147.638,228.36,147.638z"/>
	</g>
</g>
<g>
	<g>
		<path d="M228.36,210.63H177.3c-4.348,0-7.876,3.528-7.876,7.872c0,4.352,3.528,7.876,7.876,7.876h51.06
			c4.348,0,7.876-3.524,7.876-7.876C236.236,214.158,232.708,210.63,228.36,210.63z"/>
	</g>
</g>
<g>
	<g>
		<path d="M330.72,147.638h-51.056c-4.352,0-7.876,3.52-7.876,7.872c0,4.344,3.524,7.876,7.876,7.876h51.056
			c4.352,0,7.872-3.532,7.876-7.876C338.596,151.158,335.072,147.638,330.72,147.638z"/>
	</g>
</g>
<g>
	<g>
		<path d="M330.72,210.63h-51.056c-4.352,0-7.876,3.528-7.876,7.872c0,4.352,3.524,7.876,7.876,7.876h51.056
			c4.352,0,7.872-3.524,7.876-7.876C338.596,214.158,335.072,210.63,330.72,210.63z"/>
	</g>
</g>
<g>
	<g>
		<path d="M433.084,147.638h-51.06c-4.348,0-7.876,3.52-7.876,7.872c0,4.344,3.528,7.876,7.876,7.876h51.06
			c4.344,0,7.872-3.532,7.876-7.876C440.96,151.158,437.432,147.638,433.084,147.638z"/>
	</g>
</g>
<g>
	<g>
		<path d="M433.084,210.63h-51.06c-4.348,0-7.876,3.528-7.876,7.872c0,4.352,3.528,7.876,7.876,7.876h51.06
			c4.344,0,7.872-3.524,7.876-7.876C440.96,214.158,437.432,210.63,433.084,210.63z"/>
	</g>
</g>
<g>
	<g>
		<path d="M433.084,273.618h-51.06c-4.348,0-7.876,3.524-7.876,7.876c0,4.344,3.528,7.872,7.876,7.872h51.06
			c4.344,0,7.872-3.528,7.876-7.872C440.96,277.142,437.432,273.618,433.084,273.618z"/>
	</g>
</g>
<g>
	<g>
		<path d="M433.084,336.61h-51.06c-4.348,0-7.876,3.524-7.876,7.876c0,4.344,3.528,7.872,7.876,7.872h51.06
			c4.344,0,7.872-3.528,7.876-7.872C440.96,340.134,437.432,336.61,433.084,336.61z"/>
	</g>
</g>
<g>
</g>
<g>
</g>
<g>
</g>
<g>
</g>
<g>
</g>
<g>
</g>
<g>
</g>
<g>
</g>
<g>
</g>
<g>
</g>
<g>
</g>
<g>
</g>
<g>
</g>
<g>
</g>
<g>
</g>
</svg>
